<svg xmlns="http://www.w3.org/2000/svg" viewBox="0 0 409.6 409.6"><defs><style>.cls-1{fill:#fdfdfd;}.cls-2{fill:#030303;}.cls-3{fill:#f4cd80;}.cls-4{fill:#fad58f;}.cls-5{fill:#dde1e4;}.cls-6{fill:#7492e1;}.cls-7{fill:#e7a34f;}.cls-8{fill:#eaa550;}.cls-9{fill:#6883c9;}.cls-10{fill:#fb8fa8;}.cls-11{fill:#e9a450;}.cls-12{fill:#d7953f;}.cls-13{fill:#f6d299;}.cls-14{fill:#050403;}.cls-15{fill:#fc90a9;}.cls-16{fill:#fefefe;}</style></defs><g id="Capa_2" data-name="Capa 2"><g id="Capa_1-2" data-name="Capa 1"><path class="cls-2" d="M.08,270.65c1.22-.39,1.22-1.6,1.65-2.5,4.92-10.17,16.6-13.3,26.31-7.4,15.59,9.48,24.1,23.78,28.71,40.91,2.34,8.69,4.06,17.56,7.26,26,2.82,7.48,8.86,12.05,15.38,11.63a28.08,28.08,0,0,0,3.46-.74c2.39-.46,2.55-1.41,1.72-3.77-2.67-7.58-2-15.51-.85-23.22.8-5.44.66-10.78-1.28-15.58-4.46-11-2.29-20.53,5.12-29.16,2.09-2.43,1.63-3.31-1.08-4.13a36.23,36.23,0,0,1-3.67-1.5c-3.54-1.54-5.11-4.08-4-8,3-4.16,4.88-5,10.2-2.36,7.39,3.7,14.3,5,21.14-.84a9,9,0,0,1,1.7-.92c1.14-.32,2.31-.56,3.42-1,15.9-6,31.88-6.4,47.9-.56,3,1.11,6,2.6,9.23,4.05,0-19.78.23-39.05-.1-58.32-.17-9.78,1.77-18.19,11.28-24-6.11-1.54-11.11-3.82-15-8-2.86-3.07-3.08-6.25-.59-8.85,2.27-2.36,5.59-2.36,8.59,0,8.62,6.83,13.11,6.8,21.85-.1,2.95-2.33,6.3-2.25,8.53.21s2,5.84-.54,8.58a32.16,32.16,0,0,1-7.29,5.51h84.43c11.43.05,22.87.05,34.3.19,2.07,0,2.42-.71,2.19-2.55a101.68,101.68,0,0,0-5.92-25.12c-11.63-29.63-32.76-50.62-60.62-64.91-36.4-18.68-74.87-22.6-114.68-13.94-17.35,3.78-33.76,10.1-48.65,20C81.8,84.9,74.55,90.93,67.77,97.49,51.56,113.16,40.08,131.65,35.53,154c-3.66,18-3,35.64,4.49,52.68C45,218,52.6,227.17,62.08,235c4.45,3.67,4.7,5.11,2.68,9.91-4.06,2.85-6.1,2.69-9.9-.36-16.34-13.1-27.23-29.73-31.4-50.29a104.47,104.47,0,0,1,4.95-58.76c1.41-3.73,1.45-6.55-.73-10.19C13,100.7,10.21,74.42,17.92,47c2.87-10.18,10.2-16.19,20.73-17.19C65.57,27.28,90.05,33.8,111.22,51c3.29,2.68,5.9,3.12,9.88,1.86,37.6-11.94,75.25-11.72,112.8.32,3.17,1,5.22.64,7.77-1.46,21.26-17.57,45.87-24.3,73.13-21.95,10.78.93,18.57,8,21.4,18.46,7.56,28,4,54.42-11.22,79.17a5.46,5.46,0,0,0-.52,5.5,102.18,102.18,0,0,1,7.43,30.82c.22,2.63,1.06,3.2,3.54,3.19,16.63-.11,33.25-.07,49.88-.05,14.89,0,23.41,8.59,23.42,23.55q0,68,0,136.07c0,12-6.39,18.52-18.35,18.54q-29.73,0-59.45,0c-1.77,0-3.58-.43-2.43,2.6,6,15.84-5.26,33.87-25.1,33.68-18.35-.18-36.71,0-55.06-.06-25.67-.12-51.34.58-77-.36a91.21,91.21,0,0,1-51.45-17.94c-3.2-2.35-5-2-8,.17C98.82,372.58,84.47,378,68.15,374c-19.55-4.76-31.9-17.54-38.59-36.18-3-8.51-4.81-17.37-7.15-26.08-2.4-8.95-5.93-17-14.72-21.68-3.95-2.08-5.31-6.35-7.61-9.8ZM137.37,294a19.84,19.84,0,0,0-11,4.37,7.29,7.29,0,0,0,1.5.44c3.17,0,6.34-.11,9.51-.18h13.56C147,293.72,142.4,293.16,137.37,294Zm4,51.23-23.15,0-.57,0,.46.59a74.08,74.08,0,0,0,34.43,19.77c2.78,1.27,5.8,1.59,8.75,2.2,3.28.4,6.56,1,9.85,1.15,23.1.88,46.21.21,69.31.38a19.89,19.89,0,0,0,4.35-.44,12.07,12.07,0,0,0,9.66-9,12.57,12.57,0,0,0-3.61-13.12,5.86,5.86,0,0,0-4.26-1.73q-43,.15-86.05.17ZM30.5,277.86c-2.35-3-5.6-4.85-8.72-6.84-3.35-2.14-6.87-1.48-8.73,1.42s-1.05,5.86,2.1,8.28C18.08,283,21,285.2,24,287.44c5.65,7.1,8.64,15.35,10.8,24.06,2.24,9,4,18.1,7.75,26.67,9.94,22.91,35.14,31.7,55.72,19.38,2.26-1.34,4.55-2.64,6.76-4.07.68-.44,1.67-.84,1.33-2.12-.73-2.72-6.47-6.95-9.08-6.44A12.57,12.57,0,0,0,91.84,348c-10,4.72-19.67,4.87-28.85-2.14-6.09-4.64-9.63-10.95-11.72-18.08-2.34-8-4.19-16.19-6.46-24.24C42.08,293.88,38.2,284.79,30.5,277.86Zm328.83,27.05c-.88,4.45-3.72,5.94-8.06,5.89-12.5-.13-25,0-37.49,0q-62.62,0-125.23-.07c-3.21,0-4.49.63-4.26,4.07a94.28,94.28,0,0,1,0,13.55c-.3,3.79.75,4.83,4.69,4.82q99.9-.21,199.81-.1h2.79c3.45,0,5.16-1.72,5.17-5.13,0-4.79-.11-9.58.06-14.36.09-2.41-.9-2.88-3-2.81-3.85.13-7.71,0-11.57,0-4.08.06-6.52-1.78-7.16-5.88,1.13-4.6,2.72-6,7.42-6.09a92.09,92.09,0,0,1,10,0c3.3.27,4.44-.46,4.42-4.18-.17-34.57-.1-69.14-.1-103.71,0-9.06-3.1-12.12-12.27-12.12H196.6c-9.2,0-12.23,3-12.23,12.11,0,34.3.09,68.61-.12,102.91,0,4.34,1.29,5,5.24,5q80.38-.19,160.76-.09C356.38,298.78,357.81,299.77,359.33,304.91ZM172.38,282.29c0-4.25-.11-8.51.05-12.76a5,5,0,0,0-2.52-4.87c-14-9.48-29.24-11.33-45.31-7C112.22,261,101.4,266.9,94.22,278a12.88,12.88,0,0,0,3.33,17.67A12.73,12.73,0,0,0,115,293.2a27.25,27.25,0,0,1,9.76-8c11.52-5.7,29.55-6.48,38.39,10.1a14.37,14.37,0,0,0,1.57,2.3c1.79,2.13,4.25,1.16,6.35,1s1.18-2.32,1.22-3.57C172.46,290.81,172.38,286.55,172.38,282.29ZM134.78,333c11.43,0,22.87-.07,34.3.06,2.63,0,3.46-.72,3.36-3.35-.19-5.18-.22-10.37,0-15.55.13-2.93-1-3.51-3.65-3.49-15,.12-30.06.06-45.08.06-7.32,0-14.63,0-21.94,0-5.27,0-6.67,1.44-6.72,6.58q0,4.79,0,9.57c0,4.8,1.33,6.09,6.21,6.1C112.44,333,123.61,333,134.78,333ZM317,117.15c9.09-14.55,13.39-38.43,10.16-54.82-.44-2.24-1.21-2.67-3.45-2.09a122.38,122.38,0,0,0-18,6.18A86.66,86.66,0,0,0,284,79.62a176.13,176.13,0,0,1,18.13,17.24A148.78,148.78,0,0,1,317,117.15Zm-280.18.36c8.76-15.22,20.07-27.21,33-37.94C57.72,69.71,44.08,63.88,29.44,60.05c-2.66-.69-2.49,1.14-2.69,2.58A85.74,85.74,0,0,0,36.79,117.51Zm226.66,251.8c9.78,0,18.93.06,28.07,0,5.18,0,10.38.43,15.53-.32a12.88,12.88,0,0,0,11.16-12.17c.3-5.57-3.66-11.72-7.93-11.75-14.35-.12-28.71,0-43.06-.08-2,0-2.67.6-1.93,2.56C268,354.79,267.23,361.84,263.45,369.31ZM251,59.53c7.1,3.59,14,6.83,20.16,11.13,2.22,1.54,3.64,1.06,5.52-.48,12.09-9.94,26-16.39,40.95-20.63,1.83-.52,5.07-.37,5.12-2,.07-2.32-2.64-3.79-4.88-4.7a16.86,16.86,0,0,0-5-1.16c-10.26-.78-20.44-.35-30.46,2.3A83.58,83.58,0,0,0,251,59.53ZM30.7,47.66a4.93,4.93,0,0,0,1.05.65C48.93,52.69,64.8,59.74,78.54,71.15c.75.62,1.49,1.12,2.49.47A203.15,203.15,0,0,1,103,59.5C83.86,44.91,62.78,39.58,39.65,41.77A10.76,10.76,0,0,0,30.7,47.66Z"/><path class="cls-3" d="M64.76,244.89c2-4.8,1.77-6.24-2.68-9.91C52.6,227.17,45,218,40,206.66c-7.47-17-8.15-34.72-4.49-52.68,4.55-22.33,16-40.82,32.24-56.49,6.78-6.56,14-12.59,22.38-17.13a6.08,6.08,0,0,1-.8,3.81,309,309,0,0,0-11.88,30.22,148.18,148.18,0,0,0-7,57.65c-.9,2.83-.67,5.46,1.39,7.76a43.26,43.26,0,0,0,.9,6.17c1.81,6.07,2.94,12.41,6.63,17.78-1.73,5.43-.83,7.35,4.49,9.52a11.85,11.85,0,0,0,.72,1.8c6.55,11.26,14.94,21,24.32,30,1.2,1.15,2.83,2.09,2.9,4.08a9,9,0,0,0-1.7.92c-6.84,5.84-13.75,4.54-21.14.84-5.32-2.66-7.24-1.8-10.2,2.36A133.06,133.06,0,0,0,64.76,244.89Z"/><path class="cls-4" d="M111.83,249.13c-.07-2-1.7-2.93-2.9-4.08-9.38-9-17.77-18.72-24.32-30a11.85,11.85,0,0,1-.72-1.8c2.24,0,4-1.18,5.8-2.3a112.32,112.32,0,0,1,26.12-12.16,27.11,27.11,0,0,0,15.94-5.07c12.2-8.16,12.34-23.54.29-31.92,2.24-1.44,3.73-3.32,3.73-6.13s.1-5.82,0-8.72c-.17-3.74-2.56-6.26-5.8-6.36s-6,2.53-6.13,6.43c-.13,3.43,0,6.87,0,10.31-.77-.13-1.54-.28-2.32-.39-11.74-1.57-22.62-.49-30.45,9.94-2.28.8-4.7.48-7,.91-4.66.88-9.83.25-13.52,4.23a148.18,148.18,0,0,1,7-57.65A309,309,0,0,1,89.35,84.17a6.08,6.08,0,0,0,.8-3.81c14.89-9.9,31.3-16.22,48.65-20,39.81-8.66,78.28-4.74,114.68,13.94,27.86,14.29,49,35.28,60.62,64.91A101.68,101.68,0,0,1,320,164.33c.23,1.84-.12,2.58-2.19,2.55-11.43-.14-22.87-.14-34.3-.19-1.41-3.47-4.57-5-7.54-6.71-8-4.51-16.51-4-25.12-2.64,0-3.71.14-7.43-.06-11.14-.18-3.43-2.37-5.39-5.67-5.51a5.28,5.28,0,0,0-5.82,4.86c-.38,2.87-.26,5.81-.38,8.72-.13,3.3,1,5.95,3.95,7.65a7.81,7.81,0,0,0-5,4.78H199.1a32.16,32.16,0,0,0,7.29-5.51c2.59-2.74,2.77-6.12.54-8.58s-5.58-2.54-8.53-.21c-8.74,6.9-13.23,6.93-21.85.1-3-2.38-6.32-2.38-8.59,0-2.49,2.6-2.27,5.78.59,8.85,3.9,4.2,8.9,6.48,15,8-9.51,5.79-11.45,14.2-11.28,24,.33,19.27.1,38.54.1,58.32-3.27-1.45-6.18-2.94-9.23-4.05-16-5.84-32-5.4-47.9.56C114.14,248.57,113,248.81,111.83,249.13Z"/><path class="cls-5" d="M359.33,304.91c-1.52-5.14-2.95-6.13-9.08-6.13q-80.38,0-160.76.09c-4,0-5.27-.68-5.24-5,.21-34.3.11-68.61.12-102.91,0-9.12,3-12.11,12.23-12.11H384.48c9.17,0,12.27,3.06,12.27,12.12,0,34.57-.07,69.14.1,103.71,0,3.72-1.12,4.45-4.42,4.18a92.09,92.09,0,0,0-10,0c-4.7.13-6.29,1.49-7.42,6.09Zm-68.81-43c12.47,0,23.53-10.48,23.09-22.94-.47-13.75-9.26-22.84-22.91-23.12a22.72,22.72,0,0,0-23.25,22.77A23,23,0,0,0,290.52,261.87Z"/><path class="cls-6" d="M359.33,304.91l15.71,0c.64,4.1,3.08,5.94,7.16,5.88,3.86-.06,7.72.08,11.57,0,2.13-.07,3.12.4,3,2.81-.17,4.78,0,9.57-.06,14.36,0,3.41-1.72,5.15-5.17,5.13h-2.79q-99.9,0-199.81.1c-3.94,0-5-1-4.69-4.82a94.28,94.28,0,0,0,0-13.55c-.23-3.44,1.05-4.08,4.26-4.07q62.61.17,125.23.07c12.49,0,25-.09,37.49,0C355.61,310.85,358.45,309.36,359.33,304.91Z"/><path class="cls-7" d="M160.54,345.13q43-.08,86-.17a5.86,5.86,0,0,1,4.26,1.73,12.57,12.57,0,0,1,3.61,13.12,12.07,12.07,0,0,1-9.66,9,19.89,19.89,0,0,1-4.35.44c-23.1-.17-46.21.5-69.31-.38-3.29-.12-6.57-.75-9.85-1.15-1.9-4.33-3.63-8.62-3.27-13.59C158.25,350.88,160.31,348.29,160.54,345.13Z"/><path class="cls-8" d="M172.38,282.29c0,4.26.08,8.52,0,12.77,0,1.25,1,3.41-1.22,3.57s-4.56,1.13-6.35-1a14.37,14.37,0,0,1-1.57-2.3c-8.84-16.58-26.87-15.8-38.39-10.1a27.25,27.25,0,0,0-9.76,8,12.73,12.73,0,0,1-17.49,2.51A12.88,12.88,0,0,1,94.22,278c7.18-11.14,18-17,30.38-20.37,16.07-4.34,31.28-2.49,45.31,7a5,5,0,0,1,2.52,4.87C172.27,273.78,172.38,278,172.38,282.29Z"/><path class="cls-9" d="M134.78,333c-11.17,0-22.34,0-33.51,0-4.88,0-6.16-1.3-6.21-6.1q0-4.79,0-9.57c0-5.14,1.45-6.55,6.72-6.58,7.31,0,14.62,0,21.94,0,15,0,30.05.06,45.08-.06,2.68,0,3.78.56,3.65,3.49-.23,5.18-.2,10.37,0,15.55.1,2.63-.73,3.38-3.36,3.35C157.65,333,146.21,333,134.78,333Z"/><path class="cls-10" d="M317,117.15a148.78,148.78,0,0,0-14.8-20.29A176.13,176.13,0,0,0,284,79.62a86.66,86.66,0,0,1,21.62-13.2,122.38,122.38,0,0,1,18-6.18c2.24-.58,3-.15,3.45,2.09C330.36,78.72,326.06,102.6,317,117.15Z"/><path class="cls-11" d="M98.24,357.55c-20.58,12.32-45.78,3.53-55.72-19.38-3.71-8.57-5.51-17.69-7.75-26.67-2.16-8.71-5.15-17-10.8-24.06,2.32-3.09,5.59-5.55,6.53-9.58,7.7,6.93,11.58,16,14.31,25.69,2.27,8.05,4.12,16.22,6.46,24.24,2.09,7.13,5.63,13.44,11.72,18.08,9.18,7,18.83,6.86,28.85,2.14C93.63,351.42,96.84,353.88,98.24,357.55Z"/><path class="cls-10" d="M36.79,117.51a85.74,85.74,0,0,1-10-54.88c.2-1.44,0-3.27,2.69-2.58,14.64,3.83,28.28,9.66,40.36,19.52C56.86,90.3,45.55,102.29,36.79,117.51Z"/><path class="cls-12" d="M263.45,369.31c3.78-7.47,4.57-14.52,1.84-21.78-.74-2-.09-2.56,1.93-2.56,14.35,0,28.71,0,43.06.08,4.27,0,8.23,6.18,7.93,11.75A12.88,12.88,0,0,1,307.05,369c-5.15.75-10.35.28-15.53.32C282.38,369.37,273.23,369.31,263.45,369.31Z"/><path class="cls-11" d="M251,59.53A83.58,83.58,0,0,1,282.37,44c10-2.65,20.2-3.08,30.46-2.3a16.86,16.86,0,0,1,5,1.16c2.24.91,4.95,2.38,4.88,4.7,0,1.66-3.29,1.51-5.12,2-15,4.24-28.86,10.69-40.95,20.63-1.88,1.54-3.3,2-5.52.48C264.91,66.36,258.06,63.12,251,59.53Z"/><path class="cls-11" d="M30.7,47.66a10.76,10.76,0,0,1,9-5.89C62.78,39.58,83.86,44.91,103,59.5A203.15,203.15,0,0,0,81,71.62c-1,.65-1.74.15-2.49-.47C64.8,59.74,48.93,52.69,31.75,48.31A4.93,4.93,0,0,1,30.7,47.66Z"/><path class="cls-10" d="M250.87,157.34c8.61-1.4,17.15-1.87,25.12,2.64,3,1.68,6.13,3.24,7.54,6.71H237.87a7.77,7.77,0,0,1,5-4.77C246.76,162.5,249.56,161.22,250.87,157.34Z"/><path class="cls-3" d="M152.53,365.54a74.08,74.08,0,0,1-34.43-19.77.77.77,0,0,0,.11-.63l23.15,0a17.91,17.91,0,0,0,3.1,8Q148.48,359.35,152.53,365.54Z"/><path class="cls-4" d="M152.53,365.54q-4-6.19-8.07-12.4a17.91,17.91,0,0,1-3.1-8l19.17-.05c-.22,3.16-2.28,5.75-2.52,9-.36,5,1.37,9.26,3.27,13.59C158.33,367.13,155.31,366.81,152.53,365.54Z"/><path class="cls-13" d="M30.5,277.86c-.94,4-4.21,6.49-6.53,9.58-2.94-2.24-5.89-4.46-8.82-6.72-3.15-2.42-3.9-5.46-2.1-8.28s5.38-3.56,8.73-1.42C24.9,273,28.15,274.87,30.5,277.86Z"/><path class="cls-12" d="M98.24,357.55c-1.4-3.67-4.61-6.13-6.4-9.54a12.57,12.57,0,0,1,5.41-3.09c2.61-.51,8.35,3.72,9.08,6.44.34,1.28-.65,1.68-1.33,2.12C102.79,354.91,100.5,356.21,98.24,357.55Z"/><path class="cls-4" d="M137.37,294c5-.79,9.64-.23,13.55,4.63H137.36C137.36,297,137.36,295.49,137.37,294Z"/><path class="cls-3" d="M137.37,294c0,1.54,0,3.09,0,4.63-3.17.07-6.34.14-9.51.18a7.29,7.29,0,0,1-1.5-.44A19.84,19.84,0,0,1,137.37,294Z"/><path class="cls-7" d="M118.21,345.14a.77.77,0,0,1-.11.63l-.46-.59Z"/><path class="cls-14" d="M115.81,198.81A112.32,112.32,0,0,0,89.69,211c-1.81,1.12-3.56,2.32-5.8,2.3-5.32-2.17-6.22-4.09-4.49-9.52,4.92-4.25,10.89-6.79,16.45-10l13.55-5.43c3.24-1.3,6.33-1.35,8.44,1.86C120.1,193.62,118.58,196.43,115.81,198.81Z"/><path class="cls-14" d="M70.48,172c3.69-4,8.86-3.35,13.52-4.23,2.3-.43,4.72-.11,7-.91,5.17.08,10.36,0,15.52.27,4.41.23,7,2.75,6.84,6.2-.13,3.68-2.91,5.8-7.6,5.67-6.24-.18-12.48-.47-18.67.71-2.51-.4-4.92.37-7.33.79-2.75.49-5.39,1-7.89-.74C69.81,177.5,69.58,174.87,70.48,172Z"/><path class="cls-4" d="M71.87,179.8c2.5,1.71,5.14,1.23,7.89.74,2.41-.42,4.82-1.19,7.33-.79.7,6.05,4.7,10.05,8.76,14-5.56,3.2-11.53,5.74-16.45,10C75.71,198.38,74.58,192,72.77,186A43.26,43.26,0,0,1,71.87,179.8Z"/><path class="cls-15" d="M95.85,193.76c-4.06-4-8.06-8-8.76-14,6.19-1.18,12.43-.89,18.67-.71,4.69.13,7.47-2,7.6-5.67.13-3.45-2.43-6-6.84-6.2-5.16-.27-10.35-.19-15.52-.27,7.83-10.43,18.71-11.51,30.45-9.94.78.11,1.55.26,2.32.39,1.55,3.73,4.22,5.37,8.27,4.47,12.05,8.38,11.91,23.76-.29,31.92a27.11,27.11,0,0,1-15.94,5.07c2.77-2.38,4.29-5.19,2-8.62-2.11-3.21-5.2-3.16-8.44-1.86Z"/><path class="cls-14" d="M250.87,157.34c-1.31,3.88-4.11,5.16-8,4.59-3-1.71-4.08-4.36-3.95-7.66.12-2.91,0-5.85.38-8.72a5.28,5.28,0,0,1,5.82-4.86c3.3.12,5.49,2.08,5.67,5.51C251,149.91,250.87,153.63,250.87,157.34Z"/><path class="cls-14" d="M132,161.82c-4,.9-6.72-.74-8.27-4.47,0-3.44-.09-6.88,0-10.31.15-3.9,2.77-6.54,6.13-6.43s5.63,2.62,5.8,6.36c.13,2.9,0,5.81,0,8.72S134.28,160.38,132,161.82Z"/><path class="cls-16" d="M290.52,261.87a23,23,0,0,1-23.07-23.29,22.72,22.72,0,0,1,23.25-22.77c13.65.28,22.44,9.37,22.91,23.12C314.05,251.39,303,261.87,290.52,261.87Z"/></g></g></svg>